<svg xmlns="http://www.w3.org/2000/svg" xmlns:xlink="http://www.w3.org/1999/xlink" width="500" zoomAndPan="magnify" viewBox="0 0 375 374.999991" height="500" preserveAspectRatio="xMidYMid meet" version="1.2"><defs><clipPath id="81e6f521f1"><path d="M 10 34.460938 L 364 34.460938 L 364 334.460938 L 10 334.460938 Z M 10 34.460938 "/></clipPath></defs><g id="e901d018b8"><path style=" stroke:none;fill-rule:nonzero;fill:#f0eeed;fill-opacity:1;" d="M 318.585938 58.414062 C 334 54.023438 351.84375 60.136719 361.316406 73.050781 C 373.121094 89.152344 370.351562 113.601562 356.4375 127.914062 C 314.210938 171.355469 259.082031 75.371094 318.585938 58.414062 "/><path style=" stroke:none;fill-rule:nonzero;fill:#46353a;fill-opacity:1;" d="M 356.4375 127.914062 C 362.480469 121.699219 366.417969 113.570312 367.96875 105.046875 C 370.394531 91.703125 363.761719 78.558594 351.304688 73.167969 C 348.734375 72.058594 346.007812 71.230469 343.121094 70.742188 C 335.910156 69.519531 328.359375 70.828125 322.101562 74.621094 C 309.191406 82.457031 308.328125 95.792969 308.921875 108.148438 C 309.292969 115.761719 310.175781 123.398438 311.859375 130.828125 C 324.445312 141.085938 341.261719 143.527344 356.4375 127.914062 "/><path style=" stroke:none;fill-rule:nonzero;fill:#f0eeed;fill-opacity:1;" d="M 54.914062 58.414062 C 39.5 54.023438 21.65625 60.136719 12.183594 73.050781 C 0.378906 89.152344 3.148438 113.601562 17.0625 127.914062 C 59.289062 171.355469 114.417969 75.371094 54.914062 58.414062 "/><path style=" stroke:none;fill-rule:nonzero;fill:#46353a;fill-opacity:1;" d="M 17.0625 127.914062 C 11.019531 121.699219 7.082031 113.570312 5.53125 105.046875 C 3.105469 91.703125 9.738281 78.558594 22.195312 73.167969 C 24.765625 72.058594 27.492188 71.230469 30.378906 70.742188 C 37.589844 69.519531 45.140625 70.828125 51.398438 74.621094 C 64.308594 82.457031 65.171875 95.792969 64.578125 108.148438 C 64.207031 115.761719 63.324219 123.398438 61.640625 130.828125 C 49.054688 141.085938 32.238281 143.527344 17.0625 127.914062 "/><g clip-rule="nonzero" clip-path="url(#81e6f521f1)"><path style=" stroke:none;fill-rule:nonzero;fill:#f0eeed;fill-opacity:1;" d="M 363.394531 224.859375 C 363.394531 301.25 284.308594 334.472656 186.75 334.472656 C 89.191406 334.472656 10.105469 301.25 10.105469 224.859375 C 10.105469 148.46875 89.191406 34.476562 186.75 34.476562 C 284.308594 34.476562 363.394531 148.46875 363.394531 224.859375 "/></g><path style=" stroke:none;fill-rule:nonzero;fill:#705c5a;fill-opacity:1;" d="M 293.867188 82.144531 C 269.886719 95.238281 251.699219 113.789062 238.351562 135.597656 C 219.683594 166.097656 210.339844 202.832031 207.285156 239.402344 C 205.761719 257.652344 225.101562 244.167969 232.9375 240.550781 C 254.175781 230.738281 277.730469 223.09375 301.1875 221.605469 C 321.785156 220.300781 345.265625 224.085938 362.730469 236.195312 C 363.136719 232.519531 363.394531 228.757812 363.394531 224.859375 C 363.394531 180.011719 336.113281 122.238281 293.867188 82.144531 "/><path style=" stroke:none;fill-rule:nonzero;fill:#705c5a;fill-opacity:1;" d="M 79.632812 82.144531 C 103.613281 95.238281 121.800781 113.789062 135.148438 135.597656 C 153.8125 166.097656 163.160156 202.832031 166.214844 239.402344 C 167.738281 257.652344 148.398438 244.167969 140.5625 240.550781 C 119.324219 230.738281 95.769531 223.09375 72.316406 221.605469 C 51.714844 220.300781 28.234375 224.085938 10.769531 236.195312 C 10.367188 232.519531 10.105469 228.757812 10.105469 224.859375 C 10.105469 180.011719 37.386719 122.238281 79.632812 82.144531 "/><path style=" stroke:none;fill-rule:nonzero;fill:#0c0608;fill-opacity:1;" d="M 81.484375 138.992188 C 80.433594 132.410156 99.101562 124.792969 107.390625 122.8125 C 115.683594 120.835938 123.417969 123.46875 124.664062 128.6875 C 125.914062 133.910156 120.203125 139.753906 111.910156 141.726562 C 103.621094 143.707031 82.523438 145.527344 81.484375 138.992188 "/><path style=" stroke:none;fill-rule:nonzero;fill:#0c0608;fill-opacity:1;" d="M 292.015625 138.992188 C 293.066406 132.410156 274.398438 124.792969 266.109375 122.8125 C 257.816406 120.835938 250.082031 123.46875 248.835938 128.6875 C 247.585938 133.910156 253.296875 139.753906 261.585938 141.726562 C 269.878906 143.707031 290.976562 145.527344 292.015625 138.992188 "/><path style=" stroke:none;fill-rule:nonzero;fill:#0c0608;fill-opacity:1;" d="M 122.535156 197.292969 C 122.535156 207.957031 115.285156 216.601562 106.347656 216.601562 C 97.40625 216.601562 90.160156 207.957031 90.160156 197.292969 C 90.160156 186.632812 97.40625 177.988281 106.347656 177.988281 C 115.285156 177.988281 122.535156 186.632812 122.535156 197.292969 "/><path style=" stroke:none;fill-rule:nonzero;fill:#ffffff;fill-opacity:1;" d="M 116.753906 188.296875 C 116.753906 192.058594 113.699219 195.109375 109.929688 195.109375 C 106.167969 195.109375 103.109375 192.058594 103.109375 188.296875 C 103.109375 184.527344 106.167969 181.476562 109.929688 181.476562 C 113.699219 181.476562 116.753906 184.527344 116.753906 188.296875 "/><path style=" stroke:none;fill-rule:nonzero;fill:#0c0608;fill-opacity:1;" d="M 250.964844 197.292969 C 250.964844 207.957031 258.210938 216.601562 267.152344 216.601562 C 276.09375 216.601562 283.339844 207.957031 283.339844 197.292969 C 283.339844 186.632812 276.09375 177.988281 267.152344 177.988281 C 258.210938 177.988281 250.964844 186.632812 250.964844 197.292969 "/><path style=" stroke:none;fill-rule:nonzero;fill:#ffffff;fill-opacity:1;" d="M 256.746094 188.296875 C 256.746094 192.058594 259.800781 195.109375 263.570312 195.109375 C 267.332031 195.109375 270.390625 192.058594 270.390625 188.296875 C 270.390625 184.527344 267.332031 181.476562 263.570312 181.476562 C 259.800781 181.476562 256.746094 184.527344 256.746094 188.296875 "/><path style=" stroke:none;fill-rule:nonzero;fill:#5d1330;fill-opacity:1;" d="M 186.75 290.21875 C 173.730469 290.210938 157.375 289.210938 146.4375 281.488281 C 140.324219 277.171875 136.660156 270.527344 136.878906 264.140625 C 136.925781 263.078125 137.921875 262.375 138.875 262.285156 C 139.9375 262.320312 140.777344 263.210938 140.734375 264.277344 C 140.554688 269.378906 143.59375 274.765625 148.65625 278.34375 C 158.714844 285.445312 174.300781 286.363281 186.75 286.367188 C 199.199219 286.363281 214.78125 285.445312 224.84375 278.34375 C 229.910156 274.761719 232.945312 269.371094 232.761719 264.277344 C 232.722656 263.214844 233.554688 262.320312 234.621094 262.285156 C 235.585938 262.210938 236.574219 263.078125 236.613281 264.140625 C 236.839844 270.519531 233.183594 277.167969 227.070312 281.488281 C 216.121094 289.210938 199.769531 290.210938 186.75 290.21875 "/><path style=" stroke:none;fill-rule:nonzero;fill:#5d1330;fill-opacity:1;" d="M 186.945312 289.730469 C 186.074219 289.730469 185.289062 289.140625 185.074219 288.265625 C 182.910156 279.425781 182.375 263.347656 184.921875 255.863281 C 185.269531 254.855469 186.359375 254.332031 187.371094 254.660156 C 188.378906 255 188.917969 256.097656 188.574219 257.105469 C 186.265625 263.875 186.824219 279.1875 188.8125 287.347656 C 189.066406 288.378906 188.433594 289.421875 187.402344 289.675781 C 187.253906 289.714844 187.09375 289.730469 186.945312 289.730469 "/><path style=" stroke:none;fill-rule:nonzero;fill:#662039;fill-opacity:1;" d="M 230.253906 238.976562 C 230.253906 246.949219 210.777344 267.839844 186.75 267.839844 C 162.722656 267.839844 143.246094 246.949219 143.246094 238.976562 C 143.246094 231.007812 162.722656 224.546875 186.75 224.546875 C 210.777344 224.546875 230.253906 231.007812 230.253906 238.976562 "/></g></svg>